# xmcd
#
# Track frame offsets: 
#        150
#        16555
#        32812
#        46157
#        59972
#        77027
#        98720
#        113740
#        133620
#        146057
#        160322
#        176225
#
# Disc length: 2588 seconds
#
# Revision: 3
# Processed by: cddbd v1.5.1PL0 Copyright (c) Steve Scherf et al.
# Submitted via: ExactAudioCopy v0.95a5
#
DISCID=a00a1a0c
DTITLE=Various Artist - Sertanejo Nota 10
DYEAR=1990
DGENRE=Country
TTITLE0=João Mineiro e Marciano - Se eu não puder te esquecer
TTITLE1=Barrerito - Amaremos
TTITLE2=As Marcianas - Chuvas de verão
TTITLE3=Alan e Aladim - Liguei pra dizer que te amo
TTITLE4=As Mineirinhas - Cartas na mesa
TTITLE5=Chitãozinho e Xororó - Falando às paredes
TTITLE6=Chitãozinho e Xororó - Tenho ciúme de tudo
TTITLE7=Barrerito - Juventude que perdi
TTITLE8=As Mineirinhas - Coitada de mim
TTITLE9=João Mineiro e Marciano - Ainda ontem chorei de saudade
TTITLE10=Alan e Aladim - Inimigo do peito
TTITLE11=As Marcianas - Nossa melodia preferida
EXTD=ID3G:   2
EXTT0=
EXTT1=
EXTT2=
EXTT3=
EXTT4=
EXTT5=
EXTT6=
EXTT7=
EXTT8=
EXTT9=
EXTT10=
EXTT11=
PLAYORDER=
